# This file uses centimeters as units for non-parametric coordinates.

mtllib Prédio3 LP.mtl
g default
v 372.799866 360.000000 0.500000
v 542.799866 360.000000 0.500000
v 372.799866 360.000000 -169.500000
v 542.799866 360.000000 -169.500000
v 372.799866 380.072052 20.311472
v 562.611328 380.072052 20.311472
v 562.611328 380.072052 -169.500000
v 372.799866 373.730042 15.828884
v 372.799866 368.471466 11.404087
v 372.799866 364.029144 6.160298
v 548.460144 364.029144 6.160297
v 553.641479 368.389282 11.341657
v 558.128723 373.730042 15.828885
v 548.460144 364.029144 -169.500000
v 553.703918 368.471466 -169.500000
v 558.128723 373.730042 -169.500000
v 372.799866 377.535248 18.518436
v 560.818298 377.535248 18.518438
v 560.818298 377.535248 -169.500000
v 367.444580 377.535248 23.772551
v 566.072388 377.535248 23.772552
v 567.966614 380.072052 25.666761
v 367.444580 380.072052 25.666761
v 566.072388 377.535248 -174.855286
v 567.966614 380.072052 -174.855286
v 372.799896 10.000000 0.500000
v 542.799866 10.000000 0.500000
v 372.799896 360.000000 0.500000
v 542.799866 360.000000 0.500000
v 542.799866 10.000000 -169.499969
v 542.799866 360.000000 -169.499969
vt 0.375000 0.250000
vt 0.625000 0.250000
vt 0.375000 0.500000
vt 0.625000 0.500000
vt 1.000000 0.285712
vt 0.000000 0.773738
vt 0.000000 0.000000
vt 1.000000 0.000000
vt 0.000000 0.285708
vt 0.000000 0.000000
vt 1.000000 0.000000
vt 0.000000 0.285708
vt 1.000000 0.773734
vt 1.000000 1.000000
vt 0.000000 1.000000
vt 1.000000 0.773738
vt 1.000000 1.000000
vt 0.000000 1.000000
vt 1.000000 0.285708
vt 0.000000 0.773738
vt 1.000000 0.571359
vt 1.000000 0.571359
vt 0.000000 0.571359
vt 0.000000 0.571359
vt 1.000000 0.909493
vt 1.000000 0.909495
vt 0.000000 0.909495
vt 0.000000 0.909495
vt 1.000000 0.909493
vt 0.000000 0.909495
vt 0.000000 1.000000
vt 1.000000 1.000000
vt 1.000000 0.909495
vt 0.000000 0.909495
vt 0.000000 1.000000
vt 1.000000 1.000000
vt 0.375000 0.000000
vt 0.625000 0.000000
vt 0.625000 0.250000
vt 0.375000 0.250000
vt 0.375000 0.000000
vt 0.625000 0.000000
vt 0.625000 0.250000
vt 0.375000 0.250000
vn 0.000000 -1.000000 0.000000
vn 0.000000 -1.000000 0.000000
vn 0.000000 -1.000000 0.000000
vn 0.000000 -1.000000 0.000000
vn -0.000032 -0.789879 0.613263
vn -0.000045 -0.778897 0.627152
vn -0.000028 -0.680707 0.732556
vn -0.000038 -0.705086 0.709122
vn -0.000006 -0.604921 0.796286
vn -0.000008 -0.617070 0.786908
vn 0.000000 -0.814680 0.579911
vn 0.000000 -0.814680 0.579911
vn 0.579912 -0.814679 0.000000
vn 0.613264 -0.789878 -0.000032
vn 0.627153 -0.778896 -0.000045
vn 0.579912 -0.814679 0.000000
vn -0.000000 -0.598303 0.801270
vn -0.000000 -0.598303 0.801270
vn -0.000000 -0.598303 0.801270
vn -0.000000 -0.598303 0.801270
vn 0.801268 -0.598305 0.000000
vn 0.801268 -0.598306 0.000000
vn 0.801268 -0.598306 0.000000
vn 0.801268 -0.598306 0.000000
vn 0.709123 -0.705085 -0.000038
vn 0.732557 -0.680706 -0.000028
vn 0.786908 -0.617070 -0.000008
vn 0.796285 -0.604922 -0.000006
vn -0.000000 -0.577186 0.816613
vn -0.000000 -0.577186 0.816613
vn 0.816611 -0.577189 0.000000
vn 0.816611 -0.577189 0.000000
vn 0.000000 -1.000000 0.000003
vn 0.000000 -1.000000 0.000003
vn 0.000000 -1.000000 0.000003
vn 0.000000 -1.000000 0.000003
vn 0.000000 1.000000 -0.000004
vn 0.000000 1.000000 -0.000004
vn 0.000000 1.000000 -0.000004
vn 0.000000 1.000000 -0.000004
vn -0.625311 0.458780 -0.631274
vn -0.625311 0.458780 -0.631274
vn -0.625311 0.458780 -0.631274
vn -0.625311 0.458780 -0.631274
vn 0.000000 -1.000000 0.000000
vn 0.000000 -1.000000 0.000000
vn 0.000000 -1.000000 0.000000
vn 0.000000 -1.000000 0.000000
vn -0.631277 0.458777 -0.625311
vn -0.631277 0.458777 -0.625311
vn -0.631277 0.458777 -0.625311
vn -0.631277 0.458777 -0.625311
vn 0.000000 1.000000 0.000000
vn 0.000000 1.000000 0.000000
vn 0.000000 1.000000 0.000000
vn 0.000000 1.000000 0.000000
vn 0.000000 0.000000 1.000000
vn 0.000000 0.000000 1.000000
vn 0.000000 0.000000 1.000000
vn 0.000000 0.000000 1.000000
vn 1.000000 0.000000 0.000000
vn 1.000000 0.000000 0.000000
vn 1.000000 0.000000 0.000000
vn 1.000000 0.000000 0.000000
s off
g pCube29
usemtl initialShadingGroup
f 1/1/1 3/3/2 4/4/3 2/2/4
s 1
f 10/5/5 11/9/6 12/23/7 9/21/8
f 9/21/8 12/23/7 13/6/9 8/13/10
f 2/7/11 11/9/6 10/5/5 1/8/12
s 2
f 4/10/13 14/12/14 11/19/15 2/11/16
s off
f 20/29/17 21/30/18 22/31/19 23/32/20
f 21/33/21 24/34/22 25/35/23 22/36/24
s 2
f 11/19/15 14/12/14 15/24/25 12/22/26
f 12/22/26 15/24/25 16/20/27 13/16/28
s 1
f 13/6/9 18/27/29 17/25/30 8/13/10
s 2
f 16/20/27 19/28/31 18/26/32 13/16/28
s off
f 17/25/33 18/27/34 21/30/35 20/29/36
f 6/15/37 5/14/38 23/32/39 22/31/40
f 5/14/41 17/25/42 20/29/43 23/32/44
f 18/26/45 19/28/46 24/34/47 21/33/48
f 19/28/49 7/18/50 25/35/51 24/34/52
f 7/18/53 6/17/54 22/36/55 25/35/56
f 26/37/57 27/38/58 29/39/59 28/40/60
f 27/41/61 30/42/62 31/43/63 29/44/64
