# This file uses centimeters as units for non-parametric coordinates.

mtllib rua_normalASF.mtl
g default
v -29.083148 -0.345428 12.551062
v 29.083148 -0.345428 12.551062
v -29.083148 0.345428 12.603882
v 29.083148 0.345428 12.603882
v -29.083148 0.345428 -12.230335
v 29.083148 0.345428 -12.230335
v -29.083148 -0.345428 -12.230335
v 29.083148 -0.345428 -12.170861
v -29.083148 -0.345428 19.380241
v 29.083148 -0.345428 19.380241
v 29.083148 0.345428 19.380241
v -29.083148 0.345428 19.380241
v -29.083148 0.345428 -18.917810
v 29.083148 0.345428 -18.917810
v 29.083148 -0.345428 -18.917810
v -29.083148 -0.345428 -18.917810
v -29.083148 0.727795 12.603882
v 29.083148 0.727795 12.603882
v -29.083148 0.727795 19.380241
v 29.083148 0.727795 19.380241
v -29.083148 0.727795 -12.230335
v 29.083148 0.727795 -12.230335
v 29.083148 0.727795 -18.917810
v -29.083148 0.727795 -18.917810
vt 0.000000 0.114720
vt 1.000000 0.114720
vt 0.000000 0.114720
vt 1.000000 0.114720
vt 0.000000 0.535074
vt 1.000000 0.535074
vt 0.000000 0.535074
vt 1.000000 0.535074
vt 0.000000 0.000000
vt 1.000000 0.000000
vt 1.000000 0.000000
vt 0.000000 0.000000
vt 0.000000 0.649794
vt 1.000000 0.649794
vt 1.000000 0.649794
vt 0.000000 0.649794
vt 1.000000 0.114720
vt 0.000000 0.114720
vt 0.000000 0.000000
vt 1.000000 0.000000
vt 0.000000 0.535074
vt 1.000000 0.535074
vt 1.000000 0.649794
vt 0.000000 0.649794
vn 0.000000 0.000000 1.000000
vn 0.000000 0.000000 1.000000
vn 0.000000 0.000000 1.000000
vn 0.000000 0.000000 1.000000
vn 0.000000 1.000000 0.000000
vn 0.000000 1.000000 0.000000
vn 0.000000 1.000000 0.000000
vn 0.000000 1.000000 0.000000
vn 0.000000 0.000000 -1.000000
vn 0.000000 0.000000 -1.000000
vn 0.000000 0.000000 -1.000000
vn 0.000000 0.000000 -1.000000
vn 0.000000 -1.000000 0.000000
vn 0.000000 -1.000000 0.000000
vn 0.000000 -1.000000 0.000000
vn 0.000000 -1.000000 0.000000
vn 1.000000 -0.000005 0.000000
vn 1.000000 -0.000005 0.000000
vn 1.000000 -0.000005 0.000000
vn 1.000000 -0.000005 0.000000
vn -1.000000 -0.000005 0.000000
vn -1.000000 -0.000005 0.000000
vn -1.000000 -0.000005 0.000000
vn -1.000000 -0.000005 0.000000
vn 0.000000 -1.000000 0.000000
vn 0.000000 -1.000000 0.000000
vn 0.000000 -1.000000 0.000000
vn 0.000000 -1.000000 0.000000
vn 1.000000 0.000000 0.000000
vn 1.000000 0.000000 0.000000
vn 1.000000 0.000000 0.000000
vn 1.000000 0.000000 0.000000
vn 0.000000 1.000000 0.000000
vn 0.000000 1.000000 0.000000
vn 0.000000 1.000000 0.000000
vn 0.000000 1.000000 0.000000
vn -1.000000 0.000000 0.000000
vn -1.000000 0.000000 0.000000
vn -1.000000 0.000000 0.000000
vn -1.000000 0.000000 0.000000
vn 0.000000 1.000000 0.000000
vn 0.000000 1.000000 0.000000
vn 0.000000 1.000000 0.000000
vn 0.000000 1.000000 0.000000
vn 1.000000 0.000000 0.000000
vn 1.000000 0.000000 0.000000
vn 1.000000 0.000000 0.000000
vn 1.000000 0.000000 0.000000
vn 0.000000 -1.000000 0.000000
vn 0.000000 -1.000000 0.000000
vn 0.000000 -1.000000 0.000000
vn 0.000000 -1.000000 0.000000
vn -1.000000 0.000000 0.000000
vn -1.000000 0.000000 0.000000
vn -1.000000 0.000000 0.000000
vn -1.000000 0.000000 0.000000
vn 0.000000 0.000000 -1.000000
vn 0.000000 0.000000 -1.000000
vn 0.000000 0.000000 -1.000000
vn 0.000000 0.000000 -1.000000
vn -1.000000 0.000000 0.000000
vn -1.000000 0.000000 0.000000
vn -1.000000 0.000000 0.000000
vn -1.000000 0.000000 0.000000
vn 0.000000 0.000000 1.000000
vn 0.000000 0.000000 1.000000
vn 0.000000 0.000000 1.000000
vn 0.000000 0.000000 1.000000
vn 1.000000 0.000000 0.000000
vn 1.000000 0.000000 0.000000
vn 1.000000 0.000000 0.000000
vn 1.000000 0.000000 0.000000
vn 0.000000 0.000000 1.000000
vn 0.000000 0.000000 1.000000
vn 0.000000 0.000000 1.000000
vn 0.000000 0.000000 1.000000
vn 1.000000 0.000000 0.000000
vn 1.000000 0.000000 0.000000
vn 1.000000 0.000000 0.000000
vn 1.000000 0.000000 0.000000
vn 0.000000 0.000000 -1.000000
vn 0.000000 0.000000 -1.000000
vn 0.000000 0.000000 -1.000000
vn 0.000000 0.000000 -1.000000
vn -1.000000 0.000000 0.000000
vn -1.000000 0.000000 0.000000
vn -1.000000 0.000000 0.000000
vn -1.000000 0.000000 0.000000
s off
g pCube1
usemtl lambert3SG
f 9/9/1 10/10/2 11/11/3 12/12/4
usemtl lambert2SG
f 3/3/5 4/4/6 6/6/7 5/5/8
usemtl lambert3SG
f 13/13/9 14/14/10 15/15/11 16/16/12
usemtl lambert2SG
f 7/7/13 8/8/14 2/2/15 1/1/16
f 2/2/17 8/8/18 6/6/19 4/4/20
f 7/7/21 1/1/22 3/3/23 5/5/24
usemtl lambert3SG
f 1/1/25 2/2/26 10/10/27 9/9/28
f 2/2/29 4/4/30 11/11/31 10/10/32
f 18/17/33 17/18/34 19/19/35 20/20/36
f 3/3/37 1/1/38 9/9/39 12/12/40
f 21/21/41 22/22/42 23/23/43 24/24/44
f 6/6/45 8/8/46 15/15/47 14/14/48
f 8/8/49 7/7/50 16/16/51 15/15/52
f 7/7/53 5/5/54 13/13/55 16/16/56
usemtl lambert2SG
f 4/4/57 3/3/58 17/18/59 18/17/60
usemtl lambert3SG
f 3/3/61 12/12/62 19/19/63 17/18/64
f 12/12/65 11/11/66 20/20/67 19/19/68
f 11/11/69 4/4/70 18/17/71 20/20/72
usemtl lambert2SG
f 5/5/73 6/6/74 22/22/75 21/21/76
usemtl lambert3SG
f 6/6/77 14/14/78 23/23/79 22/22/80
f 14/14/81 13/13/82 24/24/83 23/23/84
f 13/13/85 5/5/86 21/21/87 24/24/88
